<?xml version="1.0" encoding="UTF-8" standalone="no"?>
<!-- Created with Inkscape (http://www.inkscape.org/) -->

<svg
   xmlns:dc="http://purl.org/dc/elements/1.1/"
   xmlns:cc="http://creativecommons.org/ns#"
   xmlns:rdf="http://www.w3.org/1999/02/22-rdf-syntax-ns#"
   xmlns:svg="http://www.w3.org/2000/svg"
   xmlns="http://www.w3.org/2000/svg"
   xmlns:xlink="http://www.w3.org/1999/xlink"
   xmlns:sodipodi="http://sodipodi.sourceforge.net/DTD/sodipodi-0.dtd"
   xmlns:inkscape="http://www.inkscape.org/namespaces/inkscape"
   width="2048"
   height="1024"
   id="svg2"
   sodipodi:version="0.32"
   inkscape:version="0.47 r22583"
   version="1.0"
   sodipodi:docname="xonotic_logo.svg"
   inkscape:output_extension="org.inkscape.output.svg.inkscape"
   inkscape:export-xdpi="45"
   inkscape:export-ydpi="45">
  <defs
     id="defs4">
    <linearGradient
       id="linearGradient3700">
      <stop
         style="stop-color:#000000;stop-opacity:0;"
         offset="0"
         id="stop3705" />
      <stop
         id="stop3707"
         offset="0.31"
         style="stop-color:#000000;stop-opacity:0;" />
      <stop
         style="stop-color:#000000;stop-opacity:0.18431373;"
         offset="0.44"
         id="stop3709" />
      <stop
         id="stop3711"
         offset="0.85000002"
         style="stop-color:#000000;stop-opacity:0;" />
      <stop
         id="stop3713"
         offset="1"
         style="stop-color:#000000;stop-opacity:0;" />
    </linearGradient>
    <linearGradient
       id="linearGradient3681">
      <stop
         id="stop3691"
         offset="0"
         style="stop-color:#1f7fff;stop-opacity:0;" />
      <stop
         style="stop-color:#1f7fff;stop-opacity:0;"
         offset="0.31"
         id="stop3695" />
      <stop
         id="stop3689"
         offset="0.44"
         style="stop-color:#1f7fff;stop-opacity:0.18431373;" />
      <stop
         style="stop-color:#1f7fff;stop-opacity:0;"
         offset="0.85000002"
         id="stop3704" />
      <stop
         style="stop-color:#1f7fff;stop-opacity:0;"
         offset="1"
         id="stop3685" />
    </linearGradient>
    <linearGradient
       id="linearGradient3699">
      <stop
         id="stop3701"
         offset="0"
         style="stop-color:#3f0f00;stop-opacity:0.56078434;" />
      <stop
         style="stop-color:#ff7f2f;stop-opacity:0.56078434;"
         offset="0.75"
         id="stop3673" />
      <stop
         id="stop3703"
         offset="1"
         style="stop-color:#ff9f5f;stop-opacity:0.56078434;" />
    </linearGradient>
    <linearGradient
       id="linearGradient3698">
      <stop
         style="stop-color:#000000;stop-opacity:1;"
         offset="0"
         id="stop3700" />
      <stop
         id="stop3706"
         offset="0.5"
         style="stop-color:#0f3f6f;stop-opacity:1;" />
      <stop
         style="stop-color:#000000;stop-opacity:1;"
         offset="1"
         id="stop3702" />
    </linearGradient>
    <linearGradient
       id="linearGradient3674">
      <stop
         style="stop-color:#000000;stop-opacity:1;"
         offset="0"
         id="stop3676" />
      <stop
         style="stop-color:#3f0b00;stop-opacity:1;"
         offset="1"
         id="stop3678" />
    </linearGradient>
    <linearGradient
       id="linearGradient3666">
      <stop
         style="stop-color:#3f0f00;stop-opacity:1;"
         offset="0"
         id="stop3668" />
      <stop
         id="stop3671"
         offset="0.75"
         style="stop-color:#ff7f2f;stop-opacity:1;" />
      <stop
         style="stop-color:#ff9f5f;stop-opacity:1;"
         offset="1"
         id="stop3670" />
    </linearGradient>
    <linearGradient
       id="linearGradient3606">
      <stop
         style="stop-color:#bfdfff;stop-opacity:1;"
         offset="0"
         id="stop3608" />
      <stop
         id="stop3616"
         offset="0.2"
         style="stop-color:#5fafff;stop-opacity:1;" />
      <stop
         id="stop3614"
         offset="0.80000001"
         style="stop-color:#5fafff;stop-opacity:1;" />
      <stop
         style="stop-color:#bfdfff;stop-opacity:1;"
         offset="1"
         id="stop3610" />
    </linearGradient>
    <linearGradient
       inkscape:collect="always"
       xlink:href="#linearGradient3606"
       id="linearGradient3612"
       x1="1024"
       y1="1592"
       x2="1024"
       y2="1480"
       gradientUnits="userSpaceOnUse"
       gradientTransform="translate(0,-1024)" />
    <linearGradient
       inkscape:collect="always"
       xlink:href="#linearGradient3666"
       id="linearGradient3672"
       x1="1024"
       y1="592"
       x2="1024"
       y2="384"
       gradientUnits="userSpaceOnUse" />
    <linearGradient
       inkscape:collect="always"
       xlink:href="#linearGradient3674"
       id="linearGradient3680"
       x1="1024"
       y1="592"
       x2="1024"
       y2="384"
       gradientUnits="userSpaceOnUse" />
    <linearGradient
       inkscape:collect="always"
       xlink:href="#linearGradient3698"
       id="linearGradient3704"
       x1="1024"
       y1="1600"
       x2="1024"
       y2="1376"
       gradientUnits="userSpaceOnUse"
       gradientTransform="translate(0,-1024)" />
    <linearGradient
       inkscape:collect="always"
       xlink:href="#linearGradient3699"
       id="linearGradient3836"
       x1="1024"
       y1="640"
       x2="1024"
       y2="384"
       gradientUnits="userSpaceOnUse" />
    <linearGradient
       inkscape:collect="always"
       xlink:href="#linearGradient3674"
       id="linearGradient4196"
       x1="1024"
       y1="640"
       x2="1024"
       y2="440"
       gradientUnits="userSpaceOnUse" />
    <linearGradient
       inkscape:collect="always"
       xlink:href="#linearGradient3666"
       id="linearGradient4204"
       x1="1024"
       y1="640"
       x2="1024"
       y2="440"
       gradientUnits="userSpaceOnUse" />
    <linearGradient
       inkscape:collect="always"
       xlink:href="#linearGradient3699"
       id="linearGradient4214"
       x1="1024"
       y1="640"
       x2="1024"
       y2="440"
       gradientUnits="userSpaceOnUse" />
    <linearGradient
       inkscape:collect="always"
       xlink:href="#linearGradient3698"
       id="linearGradient3686"
       gradientUnits="userSpaceOnUse"
       x1="1024"
       y1="640"
       x2="1024"
       y2="384" />
    <linearGradient
       inkscape:collect="always"
       xlink:href="#linearGradient3606"
       id="linearGradient3689"
       gradientUnits="userSpaceOnUse"
       gradientTransform="translate(0,-1024)"
       x1="1024"
       y1="1664"
       x2="1024"
       y2="1480" />
    <radialGradient
       inkscape:collect="always"
       xlink:href="#linearGradient3700"
       id="radialGradient3715"
       gradientUnits="userSpaceOnUse"
       cx="1024"
       cy="494"
       fx="1024"
       fy="494"
       r="256" />
    <radialGradient
       inkscape:collect="always"
       xlink:href="#linearGradient3681"
       id="radialGradient3687"
       cx="1024"
       cy="494"
       fx="1024"
       fy="494"
       r="256"
       gradientUnits="userSpaceOnUse" />
    <filter
       inkscape:collect="always"
       id="filter3806"
       x="-0.075428568"
       width="1.1508571"
       y="-0.132"
       height="1.2640001"
       inkscape:label="BlurShadow"
       color-interpolation-filters="sRGB">
      <feGaussianBlur
         inkscape:collect="always"
         stdDeviation="6"
         id="feGaussianBlur3808" />
    </filter>
    <filter
       inkscape:collect="always"
       id="filter3852"
       inkscape:label="BlurGlow"
       color-interpolation-filters="sRGB">
      <feGaussianBlur
         inkscape:collect="always"
         stdDeviation="7"
         id="feGaussianBlur3854" />
    </filter>
  </defs>
  <sodipodi:namedview
     id="base"
     pagecolor="#000000"
     bordercolor="#666666"
     borderopacity="1.0"
     inkscape:pageopacity="1"
     inkscape:pageshadow="2"
     inkscape:zoom="0.5"
     inkscape:cx="1404.65"
     inkscape:cy="313.71542"
     inkscape:document-units="px"
     inkscape:current-layer="XonoticLogo"
     showgrid="false"
     inkscape:showpageshadow="false"
     gridtolerance="10"
     showguides="true"
     inkscape:guide-bbox="true"
     inkscape:snap-to-guides="true"
     inkscape:snap-global="true"
     borderlayer="true">
    <inkscape:grid
       type="xygrid"
       id="grid2383"
       visible="true"
       enabled="true"
       empspacing="4"
       snapvisiblegridlinesonly="true" />
  </sodipodi:namedview>
  <metadata
     id="metadata7">
    <rdf:RDF>
      <cc:Work
         rdf:about="">
        <dc:format>image/svg+xml</dc:format>
        <dc:type
           rdf:resource="http://purl.org/dc/dcmitype/StillImage" />
        <dc:title>Xonotic Logo</dc:title>
        <dc:date>2010</dc:date>
        <dc:rights>
          <cc:Agent>
            <dc:title>Xonotic Community</dc:title>
          </cc:Agent>
        </dc:rights>
        <dc:publisher>
          <cc:Agent>
            <dc:title />
          </cc:Agent>
        </dc:publisher>
        <dc:creator>
          <cc:Agent>
            <dc:title>Xonotic Community</dc:title>
          </cc:Agent>
        </dc:creator>
        <cc:license
           rdf:resource="Dual-licensed under the &quot;GNU LGPL v2.1, or any later version&quot; (http://www.gnu.org/licenses/old-licenses/lgpl-2.1.html) and &quot;CC-BY v3.0&quot; (http://creativecommons.org/licenses/by/3.0/)" />
        <dc:contributor>
          <cc:Agent>
            <dc:title />
          </cc:Agent>
        </dc:contributor>
        <dc:subject>
          <rdf:Bag>
            <rdf:li>Xonotic</rdf:li>
            <rdf:li>Phoenix</rdf:li>
            <rdf:li>Logo</rdf:li>
          </rdf:Bag>
        </dc:subject>
        <dc:language />
        <dc:description>The logo of the Xonotic project.</dc:description>
      </cc:Work>
    </rdf:RDF>
  </metadata>
  <g
     inkscape:groupmode="layer"
     id="XonoticLogo">
    <g
       id="Background">
      <path
         id="BackgroundShadow"
         d="M 1024,238 C 882.6151,238 768,352.61514 768,494 768,635.38486 882.6151,750 1024,750 1165.3849,750 1280,635.38486 1280,494 1280,352.61514 1165.3849,238 1024,238 z"
         style="fill:url(#radialGradient3715);fill-opacity:1;stroke:none" />
      <path
         id="BackgroundGlow"
         d="M 1024,238 C 882.6151,238 768,352.61514 768,494 768,635.38486 882.6151,750 1024,750 1165.3849,750 1280,635.38486 1280,494 1280,352.61514 1165.3849,238 1024,238 z"
         style="fill:url(#radialGradient3687);fill-opacity:1;stroke:none" />
    </g>
    <path
       style="fill:#000000;fill-opacity:1;stroke:#000000;stroke-width:8;stroke-miterlimit:4;stroke-opacity:1;stroke-dasharray:none;filter:url(#filter3852)"
       d="M 969.28125,396.2812 C 925.981,416.8108 896,460.9225 896,512 896,582.656 953.344,640 1024.0001,640 1094.6561,640 1152.0001,582.656 1152.0001,512 1152.0001,460.9225 1122.0192,416.8108 1078.7189,396.2812 1112.8942,415.4666 1136.0001,452.0438 1136.0001,494 1136.0001,548.5462 1096.937,594.0173 1045.2813,603.9688 1038.3891,605.2965 1030.0001,636 1024.0001,636 1018.0001,636 1009.6109,605.2966 1002.7187,603.9688 951.06315,594.0172 912,548.5462 912,494 912,452.0438 935.1059,415.4666 969.28125,396.2812 z"
       id="RingShadow" />
    <g
       id="PhoenixWings">
      <path
         sodipodi:nodetypes="cccsccsccsccscccccccccccccccccccccccccccsccsccsccscccccccccccccccccccccccc"
         id="PhoenixWingsShadow"
         d="M 963.1564,392.59366 C 921.0791,414.09676 891.6511,457.24186 890.0627,507.7812 888.258,565.2096 922.9398,615.3783 973.1564,636 939.2191,629.528 908.753,631.3468 903.0314,615.375 893.9715,590.0828 867.2923,595.8421 867.5314,620.6562 851.6142,620.1018 826.0198,613.8284 801.1564,643.7812 800.8328,574.4558 889.8589,592.3985 869.5002,551.5625 858.0429,528.5813 822.3808,547.9373 836.2814,563.2812 792.5503,571.9131 757.604,555.3267 692.5002,587 750.404,499.485 875.6786,537.6908 869.8752,490.0312 865.4273,453.50266 810.8005,472.14906 829.5314,495.9688 796.6718,507.1177 736.7339,472.30386 643.5002,489.9688 730.3791,418.16286 889.1414,476.42906 895.7502,430.18736 900.9701,393.66406 847.1163,392.79106 848.7814,422.87486 779.2712,388.66126 758.01,415.92766 666.1252,385.06236 772.9245,383.66456 871.3975,345.03906 963.1564,392.59366 z M 816.969,438.34366 C 744.8304,434.23856 749.1408,445.06256 711.219,441.24986 720.7911,406.27256 627.8213,423.06806 686.3127,445.43736 563.9505,439.39236 566.1161,486.75836 443.094,463.96866 582.0041,449.50096 694.8089,368.23236 816.969,438.34366 z M 617.7502,498.2188 C 584.1315,513.0374 563.7366,540.7074 493.7814,534.6875 540.9623,536.9052 577.4358,478.91886 617.7502,498.2188 z M 804.0627,511.25 C 732.3043,518.9629 756.4204,531.9824 721.7814,534.4375 726.1133,500.5412 645.1521,528.1712 700.0627,541.5312 590.6291,557.3141 616.7465,601.3484 503.5314,585.9062 618.1556,570.9112 649.5047,464.44366 804.0627,511.25 z M 829.594,582.6562 C 795.9479,592.4153 804.0588,601.9992 785.9377,605.5625 778.9859,569.7135 716.2163,624.5562 773.4377,620.8125 711.8177,631.3836 724.6283,663.9435 662.0314,655.9688 718.3656,641.8048 730.1535,555.0753 829.594,582.6562 z M 676.4377,605.5312 C 650.5891,620.6729 653.5909,636.3178 590.2502,641.2188 623.1894,641.0288 650.8332,588.63 676.4377,605.5312 z M 1084.8438,392.59366 C 1126.9211,414.09676 1156.349,457.24186 1157.9374,507.7811 1159.742,565.2095 1125.0603,615.3782 1074.8437,636 1108.781,629.5279 1139.2471,631.3467 1144.9687,615.375 1154.0286,590.0828 1180.7078,595.842 1180.4687,620.6561 1196.3859,620.1017 1221.9803,613.8283 1246.8437,643.7811 1247.1673,574.4557 1158.1412,592.3984 1178.4999,551.5625 1189.9572,528.5812 1225.6193,547.9373 1211.7187,563.2811 1255.4498,571.913 1290.3961,555.3267 1355.5,587 1297.596,499.485 1172.3215,537.6907 1178.125,490.0311 1182.5727,453.50266 1237.1995,472.14906 1218.4688,495.9687 1251.3284,507.1177 1311.2663,472.30386 1404.5001,489.9687 1317.6211,418.16286 1158.8586,476.42906 1152.25,430.18736 1147.0299,393.66406 1200.8839,392.79096 1199.2188,422.87486 1268.729,388.66126 1289.9902,415.92766 1381.8751,385.06236 1275.0757,383.66446 1176.6025,345.03906 1084.8438,392.59366 z M 1231.0311,438.34366 C 1303.1697,434.23856 1298.8593,445.06256 1336.7811,441.24986 1327.209,406.27256 1420.1788,423.06806 1361.6876,445.43736 1484.0498,439.39236 1481.8841,486.75836 1604.9061,463.96866 1465.996,449.50096 1353.1912,368.23236 1231.0311,438.34366 z M 1430.2501,498.2187 C 1463.8686,513.0374 1484.2636,540.7074 1554.2188,534.6875 1507.038,536.9052 1470.5644,478.91886 1430.2501,498.2187 z M 1243.9375,511.2499 C 1315.6957,518.9628 1291.5797,531.9823 1326.2188,534.4375 1321.8869,500.5412 1402.8481,528.1712 1347.9375,541.5311 1457.3712,557.3141 1431.2537,601.3483 1544.4688,585.9061 1429.8445,570.9112 1398.4954,464.44366 1243.9375,511.2499 z M 1218.4061,582.6561 C 1252.0522,592.4153 1243.9412,601.9991 1262.0625,605.5625 1269.0143,569.7134 1331.7837,624.5561 1274.5625,620.8125 1336.1822,631.3836 1323.3717,663.9434 1385.9686,655.9688 1329.6344,641.8047 1317.8466,555.0752 1218.4061,582.6561 z M 1371.5626,605.5311 C 1397.4111,620.6729 1394.4094,636.3177 1457.7501,641.2188 1424.8108,641.0288 1397.1667,588.63 1371.5626,605.5311 z"
         style="fill:#000000;fill-opacity:1;fill-rule:evenodd;stroke:#000000;stroke-width:8;stroke-linejoin:round;stroke-miterlimit:4;stroke-opacity:1;stroke-dasharray:none;filter:url(#filter3806)" />
      <path
         style="fill:url(#linearGradient3836);fill-opacity:1;fill-rule:evenodd;stroke:none;filter:url(#filter3852)"
         d="M 963.1564,392.59366 C 921.0791,414.09676 891.6511,457.24186 890.0627,507.7812 888.258,565.2096 922.9398,615.3783 973.1564,636 939.2191,629.528 908.753,631.3468 903.0314,615.375 893.9715,590.0828 867.2923,595.8421 867.5314,620.6562 851.6142,620.1018 826.0198,613.8284 801.1564,643.7812 800.8328,574.4558 889.8589,592.3985 869.5002,551.5625 858.0429,528.5813 822.3808,547.9373 836.2814,563.2812 792.5503,571.9131 757.604,555.3267 692.5002,587 750.404,499.485 875.6786,537.6908 869.8752,490.0312 865.4273,453.50266 810.8005,472.14906 829.5314,495.9688 796.6718,507.1177 736.7339,472.30386 643.5002,489.9688 730.3791,418.16286 889.1414,476.42906 895.7502,430.18736 900.9701,393.66406 847.1163,392.79106 848.7814,422.87486 779.2712,388.66126 758.01,415.92766 666.1252,385.06236 772.9245,383.66456 871.3975,345.03906 963.1564,392.59366 z M 816.969,438.34366 C 744.8304,434.23856 749.1408,445.06256 711.219,441.24986 720.7911,406.27256 627.8213,423.06806 686.3127,445.43736 563.9505,439.39236 566.1161,486.75836 443.094,463.96866 582.0041,449.50096 694.8089,368.23236 816.969,438.34366 z M 617.7502,498.2188 C 584.1315,513.0374 563.7366,540.7074 493.7814,534.6875 540.9623,536.9052 577.4358,478.91886 617.7502,498.2188 z M 804.0627,511.25 C 732.3043,518.9629 756.4204,531.9824 721.7814,534.4375 726.1133,500.5412 645.1521,528.1712 700.0627,541.5312 590.6291,557.3141 616.7465,601.3484 503.5314,585.9062 618.1556,570.9112 649.5047,464.44366 804.0627,511.25 z M 829.594,582.6562 C 795.9479,592.4153 804.0588,601.9992 785.9377,605.5625 778.9859,569.7135 716.2163,624.5562 773.4377,620.8125 711.8177,631.3836 724.6283,663.9435 662.0314,655.9688 718.3656,641.8048 730.1535,555.0753 829.594,582.6562 z M 676.4377,605.5312 C 650.5891,620.6729 653.5909,636.3178 590.2502,641.2188 623.1894,641.0288 650.8332,588.63 676.4377,605.5312 z M 1084.8438,392.59366 C 1126.9211,414.09676 1156.349,457.24186 1157.9374,507.7811 1159.742,565.2095 1125.0603,615.3782 1074.8437,636 1108.781,629.5279 1139.2471,631.3467 1144.9687,615.375 1154.0286,590.0828 1180.7078,595.842 1180.4687,620.6561 1196.3859,620.1017 1221.9803,613.8283 1246.8437,643.7811 1247.1673,574.4557 1158.1412,592.3984 1178.4999,551.5625 1189.9572,528.5812 1225.6193,547.9373 1211.7187,563.2811 1255.4498,571.913 1290.3961,555.3267 1355.5,587 1297.596,499.485 1172.3215,537.6907 1178.125,490.0311 1182.5727,453.50266 1237.1995,472.14906 1218.4688,495.9687 1251.3284,507.1177 1311.2663,472.30386 1404.5001,489.9687 1317.6211,418.16286 1158.8586,476.42906 1152.25,430.18736 1147.0299,393.66406 1200.8839,392.79096 1199.2188,422.87486 1268.729,388.66126 1289.9902,415.92766 1381.8751,385.06236 1275.0757,383.66446 1176.6025,345.03906 1084.8438,392.59366 z M 1231.0311,438.34366 C 1303.1697,434.23856 1298.8593,445.06256 1336.7811,441.24986 1327.209,406.27256 1420.1788,423.06806 1361.6876,445.43736 1484.0498,439.39236 1481.8841,486.75836 1604.9061,463.96866 1465.996,449.50096 1353.1912,368.23236 1231.0311,438.34366 z M 1430.2501,498.2187 C 1463.8686,513.0374 1484.2636,540.7074 1554.2188,534.6875 1507.038,536.9052 1470.5644,478.91886 1430.2501,498.2187 z M 1243.9375,511.2499 C 1315.6957,518.9628 1291.5797,531.9823 1326.2188,534.4375 1321.8869,500.5412 1402.8481,528.1712 1347.9375,541.5311 1457.3712,557.3141 1431.2537,601.3483 1544.4688,585.9061 1429.8445,570.9112 1398.4954,464.44366 1243.9375,511.2499 z M 1218.4061,582.6561 C 1252.0522,592.4153 1243.9412,601.9991 1262.0625,605.5625 1269.0143,569.7134 1331.7837,624.5561 1274.5625,620.8125 1336.1822,631.3836 1323.3717,663.9434 1385.9686,655.9688 1329.6344,641.8047 1317.8466,555.0752 1218.4061,582.6561 z M 1371.5626,605.5311 C 1397.4111,620.6729 1394.4094,636.3177 1457.7501,641.2188 1424.8108,641.0288 1397.1667,588.63 1371.5626,605.5311 z"
         id="PhoenixWingsGlow"
         sodipodi:nodetypes="cccsccsccsccscccccccccccccccccccccccccccsccsccsccscccccccccccccccccccccccc" />
      <path
         sodipodi:nodetypes="cccsccsccsccscccccccccccccccccccccccccccsccsccsccscccccccccccccccccccccccc"
         id="PhoenixWingsFill"
         d="M 963.1564,392.59366 C 921.0791,414.09676 891.6511,457.24186 890.0627,507.7812 888.258,565.2096 922.9398,615.3783 973.1564,636 939.2191,629.528 908.753,631.3468 903.0314,615.375 893.9715,590.0828 867.2923,595.8421 867.5314,620.6562 851.6142,620.1018 826.0198,613.8284 801.1564,643.7812 800.8328,574.4558 889.8589,592.3985 869.5002,551.5625 858.0429,528.5813 822.3808,547.9373 836.2814,563.2812 792.5503,571.9131 757.604,555.3267 692.5002,587 750.404,499.485 875.6786,537.6908 869.8752,490.0312 865.4273,453.50266 810.8005,472.14906 829.5314,495.9688 796.6718,507.1177 736.7339,472.30386 643.5002,489.9688 730.3791,418.16286 889.1414,476.42906 895.7502,430.18736 900.9701,393.66406 847.1163,392.79106 848.7814,422.87486 779.2712,388.66126 758.01,415.92766 666.1252,385.06236 772.9245,383.66456 871.3975,345.03906 963.1564,392.59366 z M 816.969,438.34366 C 744.8304,434.23856 749.1408,445.06256 711.219,441.24986 720.7911,406.27256 627.8213,423.06806 686.3127,445.43736 563.9505,439.39236 566.1161,486.75836 443.094,463.96866 582.0041,449.50096 694.8089,368.23236 816.969,438.34366 z M 617.7502,498.2188 C 584.1315,513.0374 563.7366,540.7074 493.7814,534.6875 540.9623,536.9052 577.4358,478.91886 617.7502,498.2188 z M 804.0627,511.25 C 732.3043,518.9629 756.4204,531.9824 721.7814,534.4375 726.1133,500.5412 645.1521,528.1712 700.0627,541.5312 590.6291,557.3141 616.7465,601.3484 503.5314,585.9062 618.1556,570.9112 649.5047,464.44366 804.0627,511.25 z M 829.594,582.6562 C 795.9479,592.4153 804.0588,601.9992 785.9377,605.5625 778.9859,569.7135 716.2163,624.5562 773.4377,620.8125 711.8177,631.3836 724.6283,663.9435 662.0314,655.9688 718.3656,641.8048 730.1535,555.0753 829.594,582.6562 z M 676.4377,605.5312 C 650.5891,620.6729 653.5909,636.3178 590.2502,641.2188 623.1894,641.0288 650.8332,588.63 676.4377,605.5312 z M 1084.8438,392.59366 C 1126.9211,414.09676 1156.349,457.24186 1157.9374,507.7811 1159.742,565.2095 1125.0603,615.3782 1074.8437,636 1108.781,629.5279 1139.2471,631.3467 1144.9687,615.375 1154.0286,590.0828 1180.7078,595.842 1180.4687,620.6561 1196.3859,620.1017 1221.9803,613.8283 1246.8437,643.7811 1247.1673,574.4557 1158.1412,592.3984 1178.4999,551.5625 1189.9572,528.5812 1225.6193,547.9373 1211.7187,563.2811 1255.4498,571.913 1290.3961,555.3267 1355.5,587 1297.596,499.485 1172.3215,537.6907 1178.125,490.0311 1182.5727,453.50266 1237.1995,472.14906 1218.4688,495.9687 1251.3284,507.1177 1311.2663,472.30386 1404.5001,489.9687 1317.6211,418.16286 1158.8586,476.42906 1152.25,430.18736 1147.0299,393.66406 1200.8839,392.79096 1199.2188,422.87486 1268.729,388.66126 1289.9902,415.92766 1381.8751,385.06236 1275.0757,383.66446 1176.6025,345.03906 1084.8438,392.59366 z M 1231.0311,438.34366 C 1303.1697,434.23856 1298.8593,445.06256 1336.7811,441.24986 1327.209,406.27256 1420.1788,423.06806 1361.6876,445.43736 1484.0498,439.39236 1481.8841,486.75836 1604.9061,463.96866 1465.996,449.50096 1353.1912,368.23236 1231.0311,438.34366 z M 1430.2501,498.2187 C 1463.8686,513.0374 1484.2636,540.7074 1554.2188,534.6875 1507.038,536.9052 1470.5644,478.91886 1430.2501,498.2187 z M 1243.9375,511.2499 C 1315.6957,518.9628 1291.5797,531.9823 1326.2188,534.4375 1321.8869,500.5412 1402.8481,528.1712 1347.9375,541.5311 1457.3712,557.3141 1431.2537,601.3483 1544.4688,585.9061 1429.8445,570.9112 1398.4954,464.44366 1243.9375,511.2499 z M 1218.4061,582.6561 C 1252.0522,592.4153 1243.9412,601.9991 1262.0625,605.5625 1269.0143,569.7134 1331.7837,624.5561 1274.5625,620.8125 1336.1822,631.3836 1323.3717,663.9434 1385.9686,655.9688 1329.6344,641.8047 1317.8466,555.0752 1218.4061,582.6561 z M 1371.5626,605.5311 C 1397.4111,620.6729 1394.4094,636.3177 1457.7501,641.2188 1424.8108,641.0288 1397.1667,588.63 1371.5626,605.5311 z"
         style="fill:url(#linearGradient3680);fill-opacity:1;fill-rule:evenodd;stroke:url(#linearGradient3672);stroke-width:2;stroke-linejoin:round;stroke-miterlimit:4;stroke-dasharray:none"
         inkscape:export-xdpi="45"
         inkscape:export-ydpi="45" />
    </g>
    <g
       id="PhoenixHead">
      <path
         sodipodi:nodetypes="cccccccsccccccccccc"
         id="PhoenixHeadShadow"
         d="M 1057.0938,439.71875 C 1023.0924,445.20314 979.58155,487.66395 937.1875,521.78125 L 989.3125,497.71875 959.1875,529.75 985.21875,517.5625 C 976.67388,534.40527 977.58883,563.53923 949.46875,569.28125 964.11056,583.77194 982.92685,594.06177 1003.9688,598.09375 1014,600 1021,628 1024,628 1027,628 1034,600 1044.0312,598.09375 1065.8794,593.90727 1085.3218,582.97344 1100.1875,567.59375 1025.7951,568.52336 1030.4958,493.04561 1096.2188,476.53125 1091.1498,471.8082 1074.2793,472.69319 1060.4688,474.875 1062.8755,458.78057 1085.6974,451.07251 1102.5625,453.15625 1092.9241,443.37812 1081.189,436.3137 1061.7188,444.4375 L 1057.0938,439.71875 z M 1047.75,453.28125 1052.8125,458.28125 C 1046.2027,463.87886 1040.3298,464.25093 1034.75,459.25 L 1047.75,453.28125 z"
         style="fill:#000000;fill-opacity:1;fill-rule:evenodd;stroke:#000000;stroke-width:8;stroke-linejoin:round;stroke-miterlimit:4;stroke-opacity:1;stroke-dasharray:none;filter:url(#filter3806)" />
      <path
         style="fill:url(#linearGradient4214);fill-opacity:1;fill-rule:evenodd;stroke:none;filter:url(#filter3852)"
         d="M 1057.0938,439.71875 C 1023.0924,445.20314 979.58155,487.66395 937.1875,521.78125 L 989.3125,497.71875 959.1875,529.75 985.21875,517.5625 C 976.67388,534.40527 977.58883,563.53923 949.46875,569.28125 964.11056,583.77194 982.92685,594.06177 1003.9688,598.09375 1014,600 1021,628 1024,628 1027,628 1034,600 1044.0312,598.09375 1065.8794,593.90727 1085.3218,582.97344 1100.1875,567.59375 1025.7951,568.52336 1030.4958,493.04561 1096.2188,476.53125 1091.1498,471.8082 1074.2793,472.69319 1060.4688,474.875 1062.8755,458.78057 1085.6974,451.07251 1102.5625,453.15625 1092.9241,443.37812 1081.189,436.3137 1061.7188,444.4375 L 1057.0938,439.71875 z M 1047.75,453.28125 1052.8125,458.28125 C 1046.2027,463.87886 1040.3298,464.25093 1034.75,459.25 L 1047.75,453.28125 z"
         id="PhoenixHeadGlow"
         sodipodi:nodetypes="cccccccsccccccccccc" />
      <path
         sodipodi:nodetypes="cccccccsccccccccccc"
         id="PhoenixHeadFill"
         d="M 1057.0938,439.71875 C 1023.0924,445.20314 979.58155,487.66395 937.1875,521.78125 L 989.3125,497.71875 959.1875,529.75 985.21875,517.5625 C 976.67388,534.40527 977.58883,563.53923 949.46875,569.28125 964.11056,583.77194 982.92685,594.06177 1003.9688,598.09375 1014,600 1021,628 1024,628 1027,628 1034,600 1044.0312,598.09375 1065.8794,593.90727 1085.3218,582.97344 1100.1875,567.59375 1025.7951,568.52336 1030.4958,493.04561 1096.2188,476.53125 1091.1498,471.8082 1074.2793,472.69319 1060.4688,474.875 1062.8755,458.78057 1085.6974,451.07251 1102.5625,453.15625 1092.9241,443.37812 1081.189,436.3137 1061.7188,444.4375 L 1057.0938,439.71875 z M 1047.75,453.28125 1052.8125,458.28125 C 1046.2027,463.87886 1040.3298,464.25093 1034.75,459.25 L 1047.75,453.28125 z"
         style="fill:url(#linearGradient4196);fill-opacity:1;fill-rule:evenodd;stroke:url(#linearGradient4204);stroke-width:2;stroke-linejoin:round;stroke-miterlimit:4;stroke-opacity:1;stroke-dasharray:none" />
    </g>
    <g
       id="LetterX">
      <path
         style="fill:#000000;fill-opacity:1;stroke:#000000;stroke-width:8;stroke-miterlimit:4;stroke-opacity:1;stroke-dasharray:none;filter:url(#filter3806)"
         d="M 317.25,456 C 317.25,456 345.17,456.75 350,462 L 396.09375,512 350,562 C 344.48,568 316,568 316,568 L 364,568 C 368,568 372.31499,568 376,564 L 410,527.0938 444,564 C 447.68501,568 452,568 456,568 L 504,568 C 504,568 475.52,568 470,562 L 423.90625,512 470,462 C 474.83,456.75 502.75,456 502.75,456 L 456,456 C 452,456 447.68501,456 444,460 L 410,496.9063 376,460 C 372.31499,456 368,456 364,456 L 317.25,456 z"
         id="LetterXShadow"
         sodipodi:nodetypes="cccccsscscccccccscssc" />
      <path
         style="fill:#1f7fff;fill-opacity:1;stroke:none;filter:url(#filter3852)"
         d="M 317.25,456 C 317.25,456 345.17,456.75 350,462 L 396.09375,512 350,562 C 344.48,568 316,568 316,568 L 364,568 C 368,568 372.31499,568 376,564 L 410,527.0938 444,564 C 447.68501,568 452,568 456,568 L 504,568 C 504,568 475.52,568 470,562 L 423.90625,512 470,462 C 474.83,456.75 502.75,456 502.75,456 L 456,456 C 452,456 447.68501,456 444,460 L 410,496.9063 376,460 C 372.31499,456 368,456 364,456 L 317.25,456 z"
         id="LetterXGlow"
         sodipodi:nodetypes="cccccsscscccccccscssc" />
      <path
         sodipodi:nodetypes="cccccsscscccccccscssc"
         id="LetterXBorder"
         d="M 317.25,456 C 317.25,456 345.17,456.75 350,462 L 396.09375,512 350,562 C 344.48,568 316,568 316,568 L 364,568 C 368,568 372.31499,568 376,564 L 410,527.0938 444,564 C 447.68501,568 452,568 456,568 L 504,568 C 504,568 475.52,568 470,562 L 423.90625,512 470,462 C 474.83,456.75 502.75,456 502.75,456 L 456,456 C 452,456 447.68501,456 444,460 L 410,496.9063 376,460 C 372.31499,456 368,456 364,456 L 317.25,456 z"
         style="fill:url(#linearGradient3612);fill-opacity:1;stroke:none" />
      <path
         sodipodi:nodetypes="ccccccccccccccccc"
         id="LetterXFill"
         d="M 400,512 351,565 367,565 C 370,565 371.15,565 373,563 L 410,523 447,563 C 448.85,565 450,565 453,565 L 469,565 420,512 469,459 453,459 C 450,459 448.85,459 447,461 L 410,501 373,461 C 371.15,459 370,459 367,459 L 351,459 400,512 z"
         style="fill:url(#linearGradient3704);fill-opacity:1;stroke:#00001f;stroke-width:1.5;stroke-miterlimit:4;stroke-opacity:1;stroke-dasharray:none" />
    </g>
    <g
       id="LetterO">
      <path
         style="fill:#000000;fill-opacity:1;stroke:#000000;stroke-width:8;stroke-miterlimit:4;stroke-opacity:1;stroke-dasharray:none;filter:url(#filter3806)"
         d="M 540,456 C 528,456 516,472 516,488 L 516,536 C 516,552 528,568 540,568 L 636,568 C 648,568 660,552 660,536 L 660,488 C 660,472 648,456 636,456 L 540,456 z M 552,476 624,476 C 634,476 636,484 636,492 L 636,532 C 636,540 634,548 624,548 L 552,548 C 542,548 540,540 540,532 L 540,492 C 540,484 542,476 552,476 z"
         id="LetterOShadow"
         sodipodi:nodetypes="cccccccccccccccccc" />
      <path
         style="fill:#1f7fff;fill-opacity:1;stroke:none;filter:url(#filter3852)"
         d="M 540,456 C 528,456 516,472 516,488 L 516,536 C 516,552 528,568 540,568 L 636,568 C 648,568 660,552 660,536 L 660,488 C 660,472 648,456 636,456 L 540,456 z M 552,476 624,476 C 634,476 636,484 636,492 L 636,532 C 636,540 634,548 624,548 L 552,548 C 542,548 540,540 540,532 L 540,492 C 540,484 542,476 552,476 z"
         id="LetterOGlow"
         sodipodi:nodetypes="cccccccccccccccccc" />
      <path
         sodipodi:nodetypes="cccccccccccccccccc"
         id="LetterOBorder"
         d="M 540,456 C 528,456 516,472 516,488 L 516,536 C 516,552 528,568 540,568 L 636,568 C 648,568 660,552 660,536 L 660,488 C 660,472 648,456 636,456 L 540,456 z M 552,476 624,476 C 634,476 636,484 636,492 L 636,532 C 636,540 634,548 624,548 L 552,548 C 542,548 540,540 540,532 L 540,492 C 540,484 542,476 552,476 z"
         style="fill:url(#linearGradient3612);fill-opacity:1;stroke:none" />
      <path
         sodipodi:nodetypes="cccccccccccccccccc"
         id="LetterOFill"
         d="M 541,459 C 529,459 519,475 519,489 L 519,535 C 519,549 529,565 541,565 L 635,565 C 647,565 657,549 657,535 L 657,489 C 657,475 647,459 635,459 L 541,459 z M 553,473 623,473 C 635,473 638.99471,481.0001 638.875,493.1563 L 638.875,530.8438 C 638.99471,543 635,551 623,551 L 553,551 C 541,551 537.00529,543 537.125,530.8438 L 537.125,493.1563 C 537.00529,481.0001 541,473 553,473 z"
         style="fill:url(#linearGradient3704);fill-opacity:1;stroke:#00001f;stroke-width:1.5;stroke-miterlimit:4;stroke-opacity:1;stroke-dasharray:none" />
    </g>
    <g
       id="LetterN">
      <path
         style="fill:#000000;fill-opacity:1;stroke:#000000;stroke-width:8;stroke-miterlimit:4;stroke-opacity:1;stroke-dasharray:none;filter:url(#filter3806)"
         d="M 676,456 C 676,456 714.66667,456 728,456 732,456 733.94939,458.0519 736,460 L 816,536 816,462 C 816,456 784,456 784,456 L 872,456 C 872,456 840,456 840,462 L 840,562 C 840,568 872,568 872,568 872,568 836,568 824,568 820,568 818.04817,565.9506 816,564 L 732,484 732,562 C 732,568 764,568 764,568 L 676,568 C 676,568 708,568 708,562 L 708,462 C 708,456 676,456 676,456 z"
         id="LetterNShadow"
         sodipodi:nodetypes="csscccccccssccccccc" />
      <path
         style="fill:#1f7fff;fill-opacity:1;stroke:none;filter:url(#filter3852)"
         d="M 676,456 C 676,456 714.66667,456 728,456 732,456 733.94939,458.0519 736,460 L 816,536 816,462 C 816,456 784,456 784,456 L 872,456 C 872,456 840,456 840,462 L 840,562 C 840,568 872,568 872,568 872,568 836,568 824,568 820,568 818.04817,565.9506 816,564 L 732,484 732,562 C 732,568 764,568 764,568 L 676,568 C 676,568 708,568 708,562 L 708,462 C 708,456 676,456 676,456 z"
         id="LetterNGlow"
         sodipodi:nodetypes="csscccccccssccccccc" />
      <path
         sodipodi:nodetypes="csscccccccssccccccc"
         id="LetterNBorder"
         d="M 676,456 C 676,456 714.66667,456 728,456 732,456 733.94939,458.0519 736,460 L 816,536 816,462 C 816,456 784,456 784,456 L 872,456 C 872,456 840,456 840,462 L 840,562 C 840,568 872,568 872,568 872,568 836,568 824,568 820,568 818.04817,565.9506 816,564 L 732,484 732,562 C 732,568 764,568 764,568 L 676,568 C 676,568 708,568 708,562 L 708,462 C 708,456 676,456 676,456 z"
         style="fill:url(#linearGradient3612);fill-opacity:1;stroke:none" />
      <path
         sodipodi:nodetypes="ccccccccccccccccc"
         id="LetterNFill"
         d="M 839,459 817,459 C 817,459 819,460 819,461 L 819,543 730,459 709,459 C 709,459 711,460 711,461 L 711,563 C 711,564 709,565 709,565 L 731,565 C 731,565 729,564 729,563 L 729,477 822,565 839,565 C 839,565 837,564 837,563 L 837,461 C 837,460 839,459 839,459 z"
         style="fill:url(#linearGradient3704);fill-opacity:1;stroke:#00001f;stroke-width:1.5;stroke-miterlimit:4;stroke-opacity:1;stroke-dasharray:none" />
    </g>
    <g
       id="Ring">
      <path
         style="fill:#1f7fff;fill-opacity:1;stroke:none;filter:url(#filter3852)"
         d="M 969.28125,396.2812 C 925.981,416.8108 896,460.9225 896,512 896,582.656 953.344,640 1024.0001,640 1094.6561,640 1152.0001,582.656 1152.0001,512 1152.0001,460.9225 1122.0192,416.8108 1078.7189,396.2812 1112.8942,415.4666 1136.0001,452.0438 1136.0001,494 1136.0001,548.5462 1096.937,594.0173 1045.2813,603.9688 1038.3891,605.2965 1030.0001,636 1024.0001,636 1018.0001,636 1009.6109,605.2966 1002.7187,603.9688 951.06315,594.0172 912,548.5462 912,494 912,452.0438 935.1059,415.4666 969.28125,396.2812 z"
         id="RingGlow" />
      <path
         id="RingBorder"
         d="M 969.28125,396.2812 C 925.981,416.8108 896,460.9225 896,512 896,582.656 953.344,640 1024.0001,640 1094.6561,640 1152.0001,582.656 1152.0001,512 1152.0001,460.9225 1122.0192,416.8108 1078.7189,396.2812 1112.8942,415.4666 1136.0001,452.0438 1136.0001,494 1136.0001,548.5462 1096.937,594.0173 1045.2813,603.9688 1038.3891,605.2965 1030.0001,636 1024.0001,636 1018.0001,636 1009.6109,605.2966 1002.7187,603.9688 951.06315,594.0172 912,548.5462 912,494 912,452.0438 935.1059,415.4666 969.28125,396.2812 z"
         style="fill:url(#linearGradient3689);fill-opacity:1;stroke:none" />
      <path
         sodipodi:nodetypes="csccsccsccsc"
         id="RingFill"
         d="M 924.4375,436.40625 C 908.47534,457.39804 899,483.594 899,512 899,579.6951 952.81855,634.8847 1020,637 1012,630 1006,608 1002,607 948.96613,596.77 909,550.0205 909,494 909,473.01918 914.62297,453.33998 924.4375,436.40625 z M 1123.5625,436.40625 C 1133.377,453.33998 1139,473.01918 1139,494 1139,550.0205 1099.0339,596.77 1046,607 1042,608 1036,630 1028,637 1095.1815,634.8847 1149,579.6951 1149,512 1149,483.594 1139.5247,457.39804 1123.5625,436.40625 z"
         style="fill:url(#linearGradient3686);fill-opacity:1;stroke:#00001f;stroke-width:1.5;stroke-linejoin:miter;stroke-miterlimit:4;stroke-opacity:1;stroke-dasharray:none" />
    </g>
    <g
       id="LetterT">
      <path
         style="fill:#000000;fill-opacity:1;stroke:#000000;stroke-width:8;stroke-miterlimit:4;stroke-opacity:1;stroke-dasharray:none;filter:url(#filter3806)"
         d="M 1220,568 1308,568 C 1308,568 1276,568 1276,562 L 1276,476 1316,476 C 1324,476 1328.3729,461.8135 1332,460 1340,456 1364,456 1364,456 L 1164,456 C 1164,456 1188,456 1196,460 1199.6271,461.8135 1204,476 1212,476 L 1252,476 1252,562 C 1252,568 1220,568 1220,568 z"
         id="LetterTShadow"
         sodipodi:nodetypes="cccccsccscccc" />
      <path
         style="fill:#1f7fff;fill-opacity:1;stroke:none;filter:url(#filter3852)"
         d="M 1220,568 1308,568 C 1308,568 1276,568 1276,562 L 1276,476 1316,476 C 1324,476 1328.3729,461.8135 1332,460 1340,456 1364,456 1364,456 L 1164,456 C 1164,456 1188,456 1196,460 1199.6271,461.8135 1204,476 1212,476 L 1252,476 1252,562 C 1252,568 1220,568 1220,568 z"
         id="LetterTGlow"
         sodipodi:nodetypes="cccccsccscccc" />
      <path
         sodipodi:nodetypes="cccccsccscccc"
         id="LetterTBorder"
         d="M 1220,568 1308,568 C 1308,568 1276,568 1276,562 L 1276,476 1316,476 C 1324,476 1328.3729,461.8135 1332,460 1340,456 1364,456 1364,456 L 1164,456 C 1164,456 1188,456 1196,460 1199.6271,461.8135 1204,476 1212,476 L 1252,476 1252,562 C 1252,568 1220,568 1220,568 z"
         style="fill:url(#linearGradient3612);fill-opacity:1;stroke:none" />
      <path
         sodipodi:nodetypes="ccccccccccc"
         id="LetterTFill"
         d="M 1212,473 1255,473 1255,563 C 1255,564 1253,565 1253,565 L 1275,565 C 1275,565 1273,564 1273,563 L 1273,473 1316,473 C 1320,473 1328,459 1328,459 1328,459 1200,459 1200,459 1200,459 1208,473 1212,473 z"
         style="fill:url(#linearGradient3704);fill-opacity:1;stroke:#00001f;stroke-width:1.5;stroke-miterlimit:4;stroke-opacity:1;stroke-dasharray:none" />
    </g>
    <g
       id="LetterI">
      <path
         style="fill:#000000;fill-opacity:1;stroke:#000000;stroke-width:8;stroke-miterlimit:4;stroke-opacity:1;stroke-dasharray:none;filter:url(#filter3806)"
         d="M 1380,456 1468,456 C 1468,456 1436,456 1436,462 L 1436,562 C 1436,568 1468,568 1468,568 L 1380,568 C 1380,568 1412,568 1412,562 L 1412,462 C 1412,456 1380,456 1380,456 z"
         id="LetterIShadow"
         sodipodi:nodetypes="ccccccccc" />
      <path
         style="fill:#1f7fff;fill-opacity:1;stroke:none;filter:url(#filter3852)"
         d="M 1380,456 1468,456 C 1468,456 1436,456 1436,462 L 1436,562 C 1436,568 1468,568 1468,568 L 1380,568 C 1380,568 1412,568 1412,562 L 1412,462 C 1412,456 1380,456 1380,456 z"
         id="LetterIGlow"
         sodipodi:nodetypes="ccccccccc" />
      <path
         sodipodi:nodetypes="ccccccccc"
         id="LetterIBorder"
         d="M 1380,456 1468,456 C 1468,456 1436,456 1436,462 L 1436,562 C 1436,568 1468,568 1468,568 L 1380,568 C 1380,568 1412,568 1412,562 L 1412,462 C 1412,456 1380,456 1380,456 z"
         style="fill:url(#linearGradient3612);fill-opacity:1;stroke:none" />
      <path
         sodipodi:nodetypes="ccccccccc"
         id="LetterIFill"
         d="M 1433,461 C 1433,460 1435,459 1435,459 L 1413,459 C 1413,459 1415,460 1415,461 L 1415,563 C 1415,564 1413,565 1413,565 L 1435,565 C 1435,565 1433,564 1433,563 L 1433,461 z"
         style="fill:url(#linearGradient3704);fill-opacity:1;stroke:#00001f;stroke-width:1.5;stroke-miterlimit:4;stroke-opacity:1;stroke-dasharray:none" />
    </g>
    <g
       id="LetterC">
      <path
         style="fill:#000000;fill-opacity:1;stroke:#000000;stroke-width:8;stroke-miterlimit:4;stroke-opacity:1;stroke-dasharray:none;filter:url(#filter3806)"
         d="M 1540,456 C 1528,456 1516,472 1516,488 L 1516,536 C 1516,552 1528,568 1540,568 L 1636,568 C 1656,568 1652,520 1652,520 1652,520 1648,548 1624,548 L 1552,548 C 1542,548 1540,540 1540,532 L 1540,492 C 1540,484 1542,476 1552,476 L 1624,476 C 1648,476 1652,504 1652,504 1652,504 1656,456 1636,456 L 1540,456 z"
         id="LetterCShadow"
         sodipodi:nodetypes="ccccccccccccccc" />
      <path
         style="fill:#1f7fff;fill-opacity:1;stroke:none;filter:url(#filter3852)"
         d="M 1540,456 C 1528,456 1516,472 1516,488 L 1516,536 C 1516,552 1528,568 1540,568 L 1636,568 C 1656,568 1652,520 1652,520 1652,520 1648,548 1624,548 L 1552,548 C 1542,548 1540,540 1540,532 L 1540,492 C 1540,484 1542,476 1552,476 L 1624,476 C 1648,476 1652,504 1652,504 1652,504 1656,456 1636,456 L 1540,456 z"
         id="LetterCGlow"
         sodipodi:nodetypes="ccccccccccccccc" />
      <path
         sodipodi:nodetypes="ccccccccccccccc"
         id="LetterCBorder"
         d="M 1540,456 C 1528,456 1516,472 1516,488 L 1516,536 C 1516,552 1528,568 1540,568 L 1636,568 C 1656,568 1652,520 1652,520 1652,520 1648,548 1624,548 L 1552,548 C 1542,548 1540,540 1540,532 L 1540,492 C 1540,484 1542,476 1552,476 L 1624,476 C 1648,476 1652,504 1652,504 1652,504 1656,456 1636,456 L 1540,456 z"
         style="fill:url(#linearGradient3612);fill-opacity:1;stroke:none" />
      <path
         sodipodi:nodetypes="ccccccccccccccc"
         id="LetterCFill"
         d="M 1541,459 C 1529,459 1519,475 1519,489 L 1519,535 C 1519,549 1529,565 1541,565 L 1635,565 C 1649,565 1650,534 1650,534 1650,534 1644,551 1623,551 L 1553,551 C 1541,551 1537.0053,543 1537.125,530.8438 L 1537.125,493.1563 C 1537.0053,481.0001 1541,473 1553,473 L 1623,473 C 1644,473 1650,490 1650,490 1650,490 1649,459 1635,459 L 1541,459 z"
         style="fill:url(#linearGradient3704);fill-opacity:1;stroke:#00001f;stroke-width:1.5;stroke-miterlimit:4;stroke-opacity:1;stroke-dasharray:none" />
    </g>
  </g>
</svg>
